<?xml version="1.0" encoding="UTF-8"?>
<svg xmlns="http://www.w3.org/2000/svg" width="1002" height="206" viewBox="0 0 1002 206">
  <g id="Logo_Wide" data-name="Logo Wide" transform="translate(-357 -670)">
    <path id="Text" d="M186.251-153.367q-4.682-4.374-4.676-12.557v-21.7h8.883V-165.7a8.587,8.587,0,0,0,2.434,6.381,8.688,8.688,0,0,0,6.379,2.4,8.83,8.83,0,0,0,6.552-2.46q2.465-2.443,2.46-6.987v-21.256h8.866v21.641q0,8.354-4.617,12.668-4.6,4.3-13.158,4.311Q190.913-149,186.251-153.367Zm-120.458.679V-160.9a34.2,34.2,0,0,0,6.318,3.745,14.7,14.7,0,0,0,5.832,1.174q5.215,0,5.215-3.521a3.2,3.2,0,0,0-1.043-2.263c-.7-.718-2.373-1.575-5.031-2.6a50.351,50.351,0,0,1-6.312-2.832,12.208,12.208,0,0,1-4.023-3.745,10.615,10.615,0,0,1-1.7-6.223,9.754,9.754,0,0,1,3.694-7.928q3.69-3.018,9.881-3.018a28.6,28.6,0,0,1,12.039,2.954v7.452q-7.08-3.411-11.273-3.419a7.246,7.246,0,0,0-3.807.865,2.575,2.575,0,0,0-1.417,2.274,2.872,2.872,0,0,0,1.017,2.078,18.053,18.053,0,0,0,4.961,2.541,51.277,51.277,0,0,1,6.32,2.889,12.661,12.661,0,0,1,4.084,3.763,10.39,10.39,0,0,1,1.722,6.148,10.432,10.432,0,0,1-3.755,8.43q-3.755,3.132-9.892,3.14A24.829,24.829,0,0,1,65.793-152.688Zm-95.56-1.816a18.166,18.166,0,0,1-5.972-13.982,18.3,18.3,0,0,1,5.972-14.149q5.969-5.477,15.468-5.477A30.615,30.615,0,0,1-.269-184.974v8.328a28.777,28.777,0,0,0-13.289-3.523c-4.171,0-7.4,1.128-9.649,3.384A11.671,11.671,0,0,0-26.6-168.16a10.534,10.534,0,0,0,3.389,8.133,12.624,12.624,0,0,0,8.908,3.111,14.034,14.034,0,0,0,5.886-1.36v-4.452h-5.146v-6.987H.469v15.584a15.2,15.2,0,0,1-6.423,3.7A27.185,27.185,0,0,1-14.5-149Q-23.795-149-29.767-154.5Zm-195.287,1.816V-160.9a34.16,34.16,0,0,0,6.32,3.745,14.7,14.7,0,0,0,5.832,1.174q5.215,0,5.215-3.521a3.2,3.2,0,0,0-1.043-2.263c-.7-.718-2.373-1.575-5.032-2.6a50.1,50.1,0,0,1-6.309-2.832,12.2,12.2,0,0,1-4.024-3.745,10.616,10.616,0,0,1-1.7-6.223A9.754,9.754,0,0,1-222.1-185.1q3.688-3.018,9.881-3.018a28.584,28.584,0,0,1,12.036,2.954v7.452q-7.075-3.411-11.273-3.419a7.235,7.235,0,0,0-3.8.865,2.57,2.57,0,0,0-1.417,2.274,2.87,2.87,0,0,0,1.016,2.078,18.075,18.075,0,0,0,4.961,2.541,51.181,51.181,0,0,1,6.32,2.889,12.679,12.679,0,0,1,4.085,3.763,10.4,10.4,0,0,1,1.722,6.148,10.433,10.433,0,0,1-3.757,8.43q-3.755,3.132-9.89,3.14A24.83,24.83,0,0,1-225.053-152.688Zm503.329-2.1a18.963,18.963,0,0,1-5.685-13.756,19.185,19.185,0,0,1,5.641-13.7q5.647-5.868,14.758-5.868,9.086,0,14.713,5.887a19.158,19.158,0,0,1,5.634,13.685,18.981,18.981,0,0,1-5.7,13.729A19.645,19.645,0,0,1,292.989-149Q283.956-149,278.276-154.785Zm6.553-22.188a11.6,11.6,0,0,0-3.1,8.431,11.64,11.64,0,0,0,3.1,8.419,10.824,10.824,0,0,0,8.16,3.2,10.772,10.772,0,0,0,8.126-3.2,11.657,11.657,0,0,0,3.078-8.419,11.621,11.621,0,0,0-3.078-8.431,10.77,10.77,0,0,0-8.126-3.2A10.822,10.822,0,0,0,284.829-176.973Zm77.018,27.48v-38.127h25.865v6.987H370.7v8h16.226v6.987H370.7v9.166h17.366v6.987Zm-14.544,0-19.66-24.425v24.425h-8.855v-38.127h8.118l19,23.306v-23.306h8.865v38.127Zm-89.229,0v-38.127h8.865v38.127Zm-25.165,0v-31.14H220.028v-6.987h34.627v6.987H241.774v31.14Zm-75.865,0v-31.14H144.164v-6.987h34.627v6.987h-12.88v31.14Zm-26.406,0v-38.127H139.5v38.127Zm-25.166,0v-31.14H92.593v-6.987h34.626v6.987h-12.88v31.14Zm-53.378,0L32.433-173.917v24.425H23.578v-38.127H31.7l19,23.306v-23.306h8.864v38.127Zm-44.615,0v-38.127h8.864v38.127Zm-51.607,0-2.928-7.535H-62.969l-2.643,7.535h-9.4l14.333-38.127h10.29L-34.6-149.492Zm-16.494-14.187h10.95L-55.409-178.5Zm-96.615,14.187v-38.127h25.864v6.987h-17.009v8h16.226v6.987h-16.226v9.166h17.366v6.987Zm-13.7,0-14.079-17.875v17.875h-8.865v-38.127h8.865v17.168l11.3-17.168h9.761l-11.585,17.9,15.7,20.223Zm-67.813,0-19.66-24.425v24.425h-8.855v-38.127h8.117l19,23.306v-23.306h8.865v38.127Zm-40.575,0-2.928-7.535h-15.913l-2.644,7.535h-9.395l14.333-38.127h10.29l15.782,38.127Zm-16.494-14.187h10.95l-5.737-14.821ZM415.25-149.494q-.864-1.886-3.017-7.181c-1.434-3.521-2.669-5.795-3.693-6.79a4.694,4.694,0,0,0-3.3-1.5H402.7v15.472h-8.865v-38.127h15.888a11.428,11.428,0,0,1,8.4,3.2,10.55,10.55,0,0,1,3.233,7.769q0,6.3-6.108,9.334,2.7,1.285,5.1,7.014T425-149.494ZM402.7-171.952h4.683a5.227,5.227,0,0,0,3.548-1.138,4.017,4.017,0,0,0,1.312-3.231c0-2.87-1.687-4.314-5.067-4.314H402.7Zm-512.5,22.458v-38.127h15.687q9.086,0,14.375,5.339t5.283,13.795q0,8.876-5.362,13.934t-15.288,5.059Zm8.864-6.987h5.78q5.619,0,8.6-3.315a12.606,12.606,0,0,0,2.983-8.746q0-5.618-3.017-8.86t-8.673-3.232h-5.676ZM-345-149.494v-38.127h15.687q9.086,0,14.375,5.339t5.283,13.795q0,8.876-5.362,13.934t-15.288,5.059Zm8.864-6.987h5.78q5.619,0,8.6-3.315a12.606,12.606,0,0,0,2.983-8.746q0-5.618-3.017-8.86t-8.673-3.232h-5.676ZM261-210.384a14.6,14.6,0,0,1-4.55-10.978,14.93,14.93,0,0,1,4.587-11.209,16.017,16.017,0,0,1,11.6-4.429,16.292,16.292,0,0,1,11.68,4.429,14.735,14.735,0,0,1,4.661,11.119,14.486,14.486,0,0,1-4.7,11.067A16.773,16.773,0,0,1,272.4-206,15.812,15.812,0,0,1,261-210.384Zm3.273-19.262a11.039,11.039,0,0,0-3.347,8.285,10.835,10.835,0,0,0,3.353,8.13,11.608,11.608,0,0,0,8.4,3.248,11.639,11.639,0,0,0,8.451-3.308,11.051,11.051,0,0,0,3.383-8.247,10.791,10.791,0,0,0-3.383-8.078,11.52,11.52,0,0,0-8.326-3.278A11.744,11.744,0,0,0,264.272-229.646Zm-397.033,19.262a14.605,14.605,0,0,1-4.551-10.978,14.931,14.931,0,0,1,4.588-11.209,16.012,16.012,0,0,1,11.6-4.429,16.294,16.294,0,0,1,11.68,4.429,14.739,14.739,0,0,1,4.66,11.119,14.49,14.49,0,0,1-4.7,11.067A16.777,16.777,0,0,1-121.365-206,15.807,15.807,0,0,1-132.761-210.384Zm3.272-19.262a11.045,11.045,0,0,0-3.347,8.285,10.836,10.836,0,0,0,3.355,8.13,11.6,11.6,0,0,0,8.4,3.248,11.634,11.634,0,0,0,8.451-3.308,11.045,11.045,0,0,0,3.383-8.247,10.786,10.786,0,0,0-3.383-8.078,11.517,11.517,0,0,0-8.326-3.278A11.746,11.746,0,0,0-129.489-229.646Zm246.95,20.9v-5.494q3.5,4.431,8.113,4.429a5.074,5.074,0,0,0,3.39-1.136,3.564,3.564,0,0,0,1.353-2.843q0-2.769-3.982-5.234l-3.29-1.987a14.947,14.947,0,0,1-4.41-3.713,7.058,7.058,0,0,1-1.308-4.209,7.415,7.415,0,0,1,2.484-5.795,9.254,9.254,0,0,1,6.434-2.232,12.215,12.215,0,0,1,6.953,2.127v4.911a10.016,10.016,0,0,0-7.042-3.138,5.784,5.784,0,0,0-3.48.981,3,3,0,0,0-1.365,2.518,3.9,3.9,0,0,0,1,2.555,12.214,12.214,0,0,0,3.22,2.488l3.318,1.948q5.537,3.29,5.537,8.388a7.685,7.685,0,0,1-2.435,5.906A8.912,8.912,0,0,1,125.615-206,13.315,13.315,0,0,1,117.46-208.751Zm-158.932-1.633a14.491,14.491,0,0,1-4.492-10.808,15.023,15.023,0,0,1,4.655-11.268,16.105,16.105,0,0,1,11.664-4.5,20.656,20.656,0,0,1,4.846.554,39.731,39.731,0,0,1,5.8,2.024v4.414a21.308,21.308,0,0,0-10.734-3.137,11.4,11.4,0,0,0-8.356,3.375,11.22,11.22,0,0,0-3.4,8.283,11.154,11.154,0,0,0,3.4,8.418,12.1,12.1,0,0,0,8.747,3.263,20.547,20.547,0,0,0,6.212-1.189l.406-.133v-6.289h-5.821v-3.855h10.151v12.81A27.783,27.783,0,0,1-29.475-206Q-36.988-206-41.472-210.384Zm-130.1,1.633v-5.494q3.5,4.431,8.111,4.429a5.077,5.077,0,0,0,3.39-1.136,3.556,3.556,0,0,0,1.353-2.843q0-2.769-3.982-5.234l-3.287-1.987a14.955,14.955,0,0,1-4.411-3.713,7.057,7.057,0,0,1-1.307-4.209,7.425,7.425,0,0,1,2.48-5.795,9.257,9.257,0,0,1,6.435-2.232,12.212,12.212,0,0,1,6.953,2.127v4.911a10.008,10.008,0,0,0-7.041-3.138,5.774,5.774,0,0,0-3.478.981,3,3,0,0,0-1.368,2.518,3.9,3.9,0,0,0,1,2.555,12.261,12.261,0,0,0,3.22,2.488l3.319,1.948q5.539,3.29,5.54,8.388a7.688,7.688,0,0,1-2.438,5.906A8.913,8.913,0,0,1-163.419-206,13.307,13.307,0,0,1-171.573-208.751ZM-345-206.351v-30.221h4.327v26.286h13.617v3.935Zm762.205,0L396.994-229.6v23.251h-4.071v-30.22h3.5l20.389,23.449v-23.449h4.115v30.22Zm-84.6,0L312.39-229.6v23.251h-4.071v-30.22h3.5l20.389,23.449v-23.449h4.115v30.22Zm-99.769,0v-30.22h4.33v30.22Zm-32.939,0v-26.409H189.527v-3.855h25.252v3.855H204.243v26.409Zm-25.041,0-4.027-8.954H157.971l-3.8,8.954h-4.44l12.987-30.388h3.052l13.526,30.388Zm-15.189-12.8h9.389L164.184-230.1Zm-65.775,12.8v-30.22h4.33v30.22Zm-24.155,0L49.522-229.6v23.251H45.451v-30.22h3.5l20.391,23.449v-23.449h4.115v30.22Zm-46.1,0-4.026-8.954H6.751l-3.8,8.954h-4.44L11.494-236.74h3.052l13.526,30.388Zm-15.189-12.8h9.389L12.965-230.1Zm-75.726,12.8-1.322-1.991c-.043-.066-.133-.194-.258-.362L-69.7-209.9l-1.345-2.207-1.449-2.363a23.675,23.675,0,0,0-2.46-2.961,9.111,9.111,0,0,0-2.009-1.587,6.8,6.8,0,0,0-3.021-.487h-1.125v13.148h-4.329v-30.22h7.572a10.935,10.935,0,0,1,7.284,2.275,7.617,7.617,0,0,1,2.7,6.143,7.885,7.885,0,0,1-1.323,4.562A7.857,7.857,0,0,1-73-220.712a13.277,13.277,0,0,1,2.837,2.593,51.562,51.562,0,0,1,3.894,5.735q1.585,2.57,2.533,3.869l1.6,2.162Zm-13.829-17h1.641a12.224,12.224,0,0,0,4.513-.561,4.215,4.215,0,0,0,1.906-1.7,4.866,4.866,0,0,0,.679-2.585,4.618,4.618,0,0,0-.752-2.583,4.058,4.058,0,0,0-2.135-1.633,15.374,15.374,0,0,0-4.558-.479h-1.293Zm-160.35,17L-261.673-229.6v23.251h-4.072v-30.22h3.5l20.389,23.449v-23.449h4.115v30.22Zm-46.1,0-4.026-8.954h-12.854l-3.806,8.954h-4.439L-299.7-236.74h3.05l13.526,30.388Zm-15.189-12.8h9.389l-4.868-10.949ZM356.712-206.4v-30.176h17.139v3.854H361.042v9.216h12.38v3.869h-12.38v9.392h13.222v3.846Zm-574.019,0v-30.176h10.2q6.171,0,9.757,1.854a13.955,13.955,0,0,1,5.718,5.441,15.123,15.123,0,0,1,2.121,7.826,14.8,14.8,0,0,1-1.167,5.8,14.618,14.618,0,0,1-3.34,4.866,14.584,14.584,0,0,1-5.127,3.271,15.217,15.217,0,0,1-3.14.892,41.01,41.01,0,0,1-5.452.229Zm4.33-3.846h5.54a22.137,22.137,0,0,0,5.047-.445,11.632,11.632,0,0,0,2.992-1.128,10.041,10.041,0,0,0,2.2-1.678,11.179,11.179,0,0,0,3.2-8.194,10.351,10.351,0,0,0-3.288-7.938,10.3,10.3,0,0,0-2.778-1.883,11.357,11.357,0,0,0-2.976-.973,29.75,29.75,0,0,0-4.53-.238h-5.407Z" transform="translate(934 998)" fill="#1a1818"></path>
    <g id="Ikon" transform="translate(250.13 670)">
      <path id="Person" d="M208.087,243.467c2.329.18,7.406,3,7.6,5.3l-14.555,0-4.411-22.932,8.348.007Zm70.474,5.3L263.9,248.74l-4.4-22.88,8.171-.012,3.22,17.584c2.714.693,7.05,2.636,7.679,5.338m-35.633-22.9,8.247-.024-4.463,22.923H232.172c.194-2.337,5.3-5.124,7.6-5.3Zm-62.712-.021,8.082,0c-.877,3.767-1.423,8-2.22,11.755-.371,1.75-1.309,11.166-2.809,11.166H169.3c.626-2.689,4.985-4.649,7.739-5.326Zm103.655-6.433c0-.339,3.374-2.236,3.912-2.236.638,0,2.794,3.281,2.794,4.472,0,1.5-2.119,3.075-3.073,3.075-2.1,0-3.633-3.357-3.633-5.311m-126.592,2.236c0-1.191,2.157-4.472,2.795-4.472.538,0,3.912,1.9,3.912,2.236,0,1.873-1.55,5.311-3.634,5.311-.954,0-3.074-1.575-3.074-3.075m30.181-50.035c2.8,0,4.287-1.4,5.072-1.4a11.935,11.935,0,0,0,4.151,1.4h1.4c1.881,0,2.287-.525,3.633-.839V182.8c0,3.053-5.739,6.15-9.222,6.15h-.559c-3,0-8.662-3.666-8.662-5.87v-12.3c1.453.121,1.879.839,3.912.839ZM240,176.65c3.274-.272,9.918-8.508,10.578-11.339,1.491.72,4.246,3.513,7.028,3.513h2.515c4.357,0,4.354-.255,7.061,2.721a12.439,12.439,0,0,1,3,7.063,13,13,0,0,1-5.193,6.825,17.546,17.546,0,0,1-9.651,3.117c-6.5,0-14.533-4.124-15.336-11.9m-69.863,5.591h11.177V166.029c1.606,1.631,1.782,3.634,6.148,3.634a6.24,6.24,0,0,0,4.347-1.914h1.522a4.921,4.921,0,0,0,4.192,1.915h1.118c2.923,0,4.124-2.021,5.03-3.634v16.213h11.178v-2.516c0-3.891-4.306-10.317-6.5-12.51a22.41,22.41,0,0,0-5.423-4.079c-4.087-2.119-7.325-2.591-12.392-2.42-10.249,0-20.4,10.9-20.4,21.524m69.583-8.945v1.4c3.337-.777,9.3-9.022,10.061-12.3,1.955.522,4.706,4.731,9.951,4.835-2.568-1.013-5.223-2.448-6.318-4,.211-.315.656-1.118,1.118-1.118.319,0,3.182,2.273,4,2.7a32.044,32.044,0,0,0,4.939,1.969c5.226,1.888,4.315,3.113,7.266,6.508,0-8.194-7.985-13.417-16.488-13.417-7.709-.016-14.532,6.573-14.532,13.417M227.7,147.167l-1.674.377.277,60.414c3.433-5.128,6.083-9.288,11.173-12.864a36.612,36.612,0,0,1,7.713-4.3c5.09-2.04,4.275-.442,9.619-.442h1.956c2.26,0,3.536-.838,5.31-.838,4.344,0,13.14,7.138,15.718,9.714,2.423,2.421,9.343,11.98,9.432,16l-5.292,2.826c-2.114-3.162-8.408-12.045-12.034-12.889l.959,15.925-.12,2.8h-31.02l1.056-19.012c-3.047,1.648-5.1,3.621-7.763,5.594-2.042,1.51-5.312,4.836-7.266,5.87v25.437c0,1.6.63,7.547-.839,7.547h-1.4a4.038,4.038,0,0,1-1.4-.28V216.9c0-1.308-13.055-10.942-15.091-12.02l1.216,19-31.117.007v-1.957l.976-17.042c-4.625,2.366-9.313,8.883-12.155,13.129l-5.268-2.87c.053-4.176,6.98-13.518,9.53-16.068a32.7,32.7,0,0,1,7.1-5.752c1.493-.861,6.1-3.8,9.272-3.9a12.905,12.905,0,0,0,6.469,1.477c2.1,0,3.839-1.119,5.03-1.119.332,0,21.473,16.455,24.033,18.17V147.58l-1.957.28v56.185l-20.34-15.452a8.121,8.121,0,0,0,3.573-4.395H216.8v-2.8c0-11.835-11.515-22.641-23.753-22.641h-1.957c-7.289,0-12.7,4.181-16.418,7.9-3.978,3.968-6.5,9.643-6.5,17.541h13.171a6.542,6.542,0,0,0,3.317,3.914c-5.043.112-14.1,7.663-16.984,10.686-2.433,2.55-9.565,13.568-9.565,17.826a7.228,7.228,0,0,0-2.794,5.591c0,2.116,3.21,4.472,5.589,4.472,1.962,0,3.616-2.507,4.283-4.1,1.008-2.406,1.9-2.89,3.266-4.84,1.6-2.3,5.4-7.517,7.541-8.949l-1.118,17.051h3.353c0,2.157-1.233,5.295-1.4,7.548-.114,1.566-.863,5.527-1.266,7.4-.611,2.841-8.516,2.917-8.516,8.813v1.118h17.885c1.025,0,1.5-4.54,1.748-5.8.432-2.17.64-4.089,1.215-6.332.534-2.085,2.347-10.982,2.347-12.746h4.751l4.493,24.873,18.422,0v-1.677c0-2.848-5.336-6.758-8.1-6.989-.361-4.339-2.795-11.628-2.795-15.374v-.838H210.1l-.882-15.651.043-1.4,11.026,8.507c-.127,6.308-.127,12.458-.127,18.607v9.225c0,3.168-.354,6.15,2.795,6.15h1.956a3.494,3.494,0,0,0,2.795-1.677V217.182l10.741-8.582.158,1.315-.887,15.93,3.122,0-2.764,16.218c-2.659.213-8.135,4.151-8.135,6.7v1.956H248.38a97.073,97.073,0,0,1,2.3-11.958c.435-1.794,2.174-10.526,2.174-12.081v-.838H257.6c.055,2.452,1.706,9.942,2.3,12.795.35,1.685,1.08,4.591,1.341,6.206.209,1.3.272,5.877,1.67,5.877H280.8v-1.4c0-4.123-5.605-6.078-8.383-7.547l-2.772-15.937,3.331,0-1.1-17.052c3.625,2.439,7.219,9.8,9.486,11.461,1.929,1.064,1.584,6.429,5.868,6.429,2.272,0,5.31-2.461,5.31-4.752v-.28a7.785,7.785,0,0,0-2.795-5.032c0-5-6.93-14.139-9.39-17.442-2.219-2.981-11.547-10.519-15.76-11.028,4.871-2.942,8.209-7.848,8.1-15.695-.352-9.28-9.908-14.535-17.326-14.535-10.389,0-18.258,6.944-17.6,17.61,0,2.712,1.811,6.266,3.025,7.876,2.222,2.943,3.516,3.417,5.954,4.9-3.867.9-8.161,3.615-10.937,5.668a37.5,37.5,0,0,0-4.26,3.846c-1.032,1.033-3.078,3.7-3.843,4.262Z" transform="translate(-14.918 -45.284)" fill="#2c2a26" fill-rule="evenodd"></path>
      <path id="Face" d="M-339.5-200.4a2.073,2.073,0,0,1,2.13-2.006,2.072,2.072,0,0,1,2.129,2.006,2.072,2.072,0,0,1-2.129,2A2.072,2.072,0,0,1-339.5-200.4Zm62.6-.317a2.073,2.073,0,0,1,2.13-2.006,2.073,2.073,0,0,1,2.13,2.006,2.072,2.072,0,0,1-2.13,2A2.072,2.072,0,0,1-276.908-200.712Zm-62.561-5.445a2.072,2.072,0,0,1,2.13-2,2.072,2.072,0,0,1,2.129,2,2.072,2.072,0,0,1-2.129,2A2.072,2.072,0,0,1-339.469-206.157Zm62.6-.317a2.073,2.073,0,0,1,2.13-2.006,2.073,2.073,0,0,1,2.13,2.006,2.072,2.072,0,0,1-2.13,2A2.072,2.072,0,0,1-276.872-206.474Zm-62.561-5.444a2.073,2.073,0,0,1,2.13-2.006,2.073,2.073,0,0,1,2.13,2.006,2.072,2.072,0,0,1-2.13,2A2.072,2.072,0,0,1-339.433-211.918Zm62.6-.317a2.073,2.073,0,0,1,2.13-2.006,2.073,2.073,0,0,1,2.13,2.006,2.072,2.072,0,0,1-2.13,2A2.072,2.072,0,0,1-276.836-212.235Zm-3.356-15.2v-1.118h1.821c.208.854.129,3.963,4.048,3.913,1.839,0,3.353-1.849,3.353-3.913h1.956a5.743,5.743,0,0,1-5.868,5.87C-277.819-222.687-280.191-225.135-280.191-227.439Zm-57.846,4.752c-2.079,0-5.03-2.952-5.03-5.032v-.839h1.956c0,2.155,1.37,3.913,3.354,3.913,4.571,0,3.288-3.913,4.751-3.913h1.117v1.118c0,2.3-2.824,4.752-5.31,4.752Zm3.1-11.646a2.576,2.576,0,0,1,2.573-2.573,2.576,2.576,0,0,1,2.573,2.573,2.576,2.576,0,0,1-2.573,2.573A2.576,2.576,0,0,1-334.939-234.332Zm1.977,0a.6.6,0,0,0,.6.6.6.6,0,0,0,.6-.6.6.6,0,0,0-.6-.6A.6.6,0,0,0-332.963-234.332Zm-12.037,0a2.576,2.576,0,0,1,2.573-2.573,2.576,2.576,0,0,1,2.573,2.573,2.576,2.576,0,0,1-2.573,2.573A2.576,2.576,0,0,1-345-234.332Zm1.977,0a.6.6,0,0,0,.6.6.6.6,0,0,0,.6-.6.6.6,0,0,0-.6-.6A.6.6,0,0,0-343.023-234.332Zm70.738-.093A2.576,2.576,0,0,1-269.712-237a2.576,2.576,0,0,1,2.573,2.573,2.576,2.576,0,0,1-2.573,2.573A2.576,2.576,0,0,1-272.285-234.426Zm1.977,0a.6.6,0,0,0,.6.6.6.6,0,0,0,.6-.6.6.6,0,0,0-.6-.6A.6.6,0,0,0-270.308-234.426Zm-12.036,0A2.576,2.576,0,0,1-279.772-237a2.576,2.576,0,0,1,2.573,2.573,2.576,2.576,0,0,1-2.573,2.573A2.576,2.576,0,0,1-282.344-234.426Zm1.977,0a.6.6,0,0,0,.6.6.6.6,0,0,0,.6-.6.6.6,0,0,0-.6-.6A.6.6,0,0,0-280.368-234.426Z" transform="translate(515.05 364.116)" fill="#2c2a26"></path>
      <path id="Red" d="M249.111,95.867c-9.117,0-16.91,6.273-21.518,10.622-1.468-17.639-3.155-34.624-6.033-50.989-1.364-7.759-2.925-16.326-4.978-23.532-1.092-3.838-1.977-7.337-3.132-11.123-.688-2.255-3.322-8.818-3.463-10.512h.838c15.865,0,31.359,27.58,37.536,39.324A260.728,260.728,0,0,1,260.328,76.26c1.564,3.973,9.665,25.078,9.742,28.551-.808-1.488-5.63-4.508-7.333-5.449a26.569,26.569,0,0,0-13.626-3.5m-101.162,8.944c.4-4.761,7.815-23.952,9.781-28.791,3.845-9.465,7.4-17.581,11.832-26.461,5.827-11.684,22.1-39.228,37.632-39.228h.838c-.114,1.367-2.851,8.448-3.527,10.728-1.1,3.695-2.036,7.518-3.144,11.111-2.049,6.638-3.746,16.349-5.01,23.5-1.465,8.284-2.089,16.5-3.577,24.934-.723,4.1-1.245,8.767-1.634,13.018-.348,3.806-.714,9.147-.714,12.867-1.495-.791-2.926-2.4-4.587-3.519-1.788-1.2-3.061-2.1-4.919-3.185-2.5-1.463-8.4-3.918-12.25-3.918-9.458,0-13.256,2.838-20.722,8.944M211.2,3.186l.051,4.312-4.413.037,0-4.116a1.888,1.888,0,0,1,2.116-2.033,1.841,1.841,0,0,1,2.248,1.8m-5.96,99.389,1.957-.28h3.632l.282-.035,1.674.156a19.967,19.967,0,0,1,8.35,2.27,28.926,28.926,0,0,1,6.462,4.6c2.76-2.485,5.139-5.214,9.172-7.556,2.69-1.561,6.659-3.905,12.625-3.905a27.467,27.467,0,0,1,21.876,11.461c1.031-1.047,7.175-10.9,16.688-10.9,9.431,0,16.554,3.93,22.915,10.622,0-29.031-12.985-55.237-26.753-70.515A89.741,89.741,0,0,0,256.471,17.5c-9.586-4.8-25.04-9.768-39.218-9.768L212.5,7.578V2.742C212.411,1.72,211.757,0,208.759,0a3.141,3.141,0,0,0-3.242,3.1V7.536c-14.651,0-31.689,3.788-41.361,8.664-10.384,5.234-22.211,12.318-29.009,21.018-3.728,4.771-7.62,8.364-10.859,14.016-3.181,5.551-6.042,10.249-8.586,16.568-4.8,11.921-8.831,25.008-8.831,41.482.152-.055,6.576-5.9,8.156-6.937,2.093-1.377,8.123-3.965,11.406-3.965h3.633c6.578,0,13.828,6.4,16.208,10.9a40.113,40.113,0,0,1,8.271-7.1c3.579-2.384,7.757-4.361,12.129-4.361a27.857,27.857,0,0,1,13.637,3.969c1.913,1.2,3.389,2.122,5.2,3.462,1.7,1.259,3.36,2.989,4.914,4.03,2.206-1.478,3.2-2.953,6.237-4.384,1.775-.836,6.18-2.325,8.574-2.325" transform="translate(0)" fill="#dd081f" fill-rule="evenodd"></path>
    </g>
  </g>
</svg>
